<?xml version="1.0" encoding="UTF-8" standalone="no"?>
<!-- Created with Inkscape (http://www.inkscape.org/) -->

<svg
   xmlns:dc="http://purl.org/dc/elements/1.1/"
   xmlns:cc="http://creativecommons.org/ns#"
   xmlns:rdf="http://www.w3.org/1999/02/22-rdf-syntax-ns#"
   xmlns:svg="http://www.w3.org/2000/svg"
   xmlns="http://www.w3.org/2000/svg"
   xmlns:sodipodi="http://sodipodi.sourceforge.net/DTD/sodipodi-0.dtd"
   xmlns:inkscape="http://www.inkscape.org/namespaces/inkscape"
   width="1024"
   height="1024"
   viewBox="0 0 1024 1024"
   id="svg2"
   version="1.1"
   inkscape:version="0.91 r13725"
   sodipodi:docname="icon.svg"
   inkscape:export-filename="/home/alan/source/tmp/gui/icon.iconset/icon_16x16.png"
   inkscape:export-xdpi="1.41"
   inkscape:export-ydpi="1.41">
  <defs
     id="defs4" />
  <sodipodi:namedview
     id="base"
     pagecolor="#ffffff"
     bordercolor="#666666"
     borderopacity="1.0"
     inkscape:pageopacity="0.0"
     inkscape:pageshadow="2"
     inkscape:zoom="0.72686091"
     inkscape:cx="794.71952"
     inkscape:cy="547.31235"
     inkscape:document-units="px"
     inkscape:current-layer="layer1"
     showgrid="false"
     inkscape:snap-bbox="false"
     inkscape:snap-bbox-midpoints="true"
     inkscape:object-nodes="true"
     inkscape:bbox-paths="true"
     inkscape:object-paths="true"
     inkscape:snap-intersection-paths="false"
     inkscape:snap-smooth-nodes="false"
     inkscape:snap-object-midpoints="true"
     showguides="true"
     inkscape:guide-bbox="true"
     inkscape:snap-center="true"
     inkscape:window-width="1906"
     inkscape:window-height="1050"
     inkscape:window-x="1926"
     inkscape:window-y="22"
     inkscape:window-maximized="0"
     fit-margin-top="0"
     fit-margin-left="0"
     fit-margin-right="0"
     fit-margin-bottom="0"
     units="px" />
  <metadata
     id="metadata7">
    <rdf:RDF>
      <cc:Work
         rdf:about="">
        <dc:format>image/svg+xml</dc:format>
        <dc:type
           rdf:resource="http://purl.org/dc/dcmitype/StillImage" />
        <dc:title></dc:title>
      </cc:Work>
    </rdf:RDF>
  </metadata>
  <g
     inkscape:label="Layer 1"
     inkscape:groupmode="layer"
     id="layer1"
     transform="translate(72.850424,252.68869)">
    <circle
       style="opacity:1;fill:#323c39;fill-opacity:1;stroke:#000000;stroke-width:20;stroke-linecap:round;stroke-linejoin:round;stroke-miterlimit:4;stroke-dasharray:none;stroke-dashoffset:0;stroke-opacity:1"
       id="path4291"
       cx="439.14957"
       cy="259.31131"
       r="449.87973" />
    <g
       style="font-style:normal;font-variant:normal;font-weight:normal;font-stretch:semi-condensed;font-size:25.38106155px;line-height:125%;font-family:Symbola;-inkscape-font-specification:'Symbola Semi-Condensed';text-align:start;letter-spacing:0px;word-spacing:0px;text-anchor:start;fill:#639bff;fill-opacity:1;stroke:none;stroke-width:1px;stroke-linecap:butt;stroke-linejoin:miter;stroke-opacity:1"
       id="text4136"
       transform="matrix(33.619581,0,0,33.619581,-8544.4601,-16532.037)">
      <path
         style="fill:#639bff;fill-opacity:1"
         d="m 278.46655,501.56891 q 0,2.25555 -1.30128,3.94101 -1.40042,1.82178 -3.594,1.82178 -1.66067,0 -3.27177,-0.95427 -1.47478,-0.86751 -2.54059,-2.30511 l -0.75598,-1.01624 q -2.62733,4.27562 -6.22133,4.27562 -2.1564,0 -3.54443,-1.84657 -1.27649,-1.68546 -1.27649,-3.91622 0,-2.24315 1.30128,-3.91622 1.41281,-1.82178 3.594,-1.82178 1.63588,0 3.25938,0.95427 1.51196,0.8923 2.55298,2.29272 l 0.75598,1.01623 q 2.67691,-4.26322 6.22133,-4.26322 2.16879,0 3.55682,1.83418 1.2641,1.67307 1.2641,3.90382 z m -0.65684,0 q 0,-1.84657 -1.00384,-3.27177 -1.12777,-1.58632 -2.89998,-1.58632 -3.22221,0 -5.76279,4.32519 0.83033,1.06581 1.66067,2.13161 1.01624,1.2641 1.84657,1.9705 1.01624,0.86752 2.32991,0.86752 1.68546,0 2.80083,-1.40042 1.02863,-1.31367 1.02863,-3.03631 z m -11.52558,0.55769 q -0.83034,-1.0658 -1.64828,-2.144 -1.00384,-1.25171 -1.85896,-1.97051 -1.01624,-0.86751 -2.32991,-0.86751 -1.69785,0 -2.80084,1.40042 -1.02862,1.31367 -1.02862,3.0487 0,1.82178 1.01623,3.25938 1.14017,1.58632 2.88759,1.58632 3.22221,0 5.76279,-4.3128 z"
         id="path4141"
         inkscape:connector-curvature="0" />
    </g>
    <path
       style="opacity:1;fill:#639bff;fill-opacity:1;stroke:none;stroke-width:1;stroke-linecap:round;stroke-linejoin:round;stroke-miterlimit:4;stroke-dasharray:none;stroke-dashoffset:0;stroke-opacity:1"
       d="m 261.50684,330.91692 a 30.746595,30.746595 0 0 1 -30.74646,30.74645 30.746595,30.746595 0 0 1 -30.74678,-30.74645 30.746595,30.746595 0 0 1 30.74678,-30.74678 30.746595,30.746595 0 0 1 30.74646,30.74678 z"
       id="path4153"
       inkscape:connector-curvature="0" />
    <path
       style="opacity:1;fill:#639bff;fill-opacity:1;stroke:none;stroke-width:1;stroke-linecap:round;stroke-linejoin:round;stroke-miterlimit:4;stroke-dasharray:none;stroke-dashoffset:0;stroke-opacity:1"
       d="m 691.15365,330.91692 a 30.746595,30.746595 0 0 1 -30.74647,30.74645 30.746595,30.746595 0 0 1 -30.74644,-30.74645 30.746595,30.746595 0 0 1 30.74644,-30.74678 30.746595,30.746595 0 0 1 30.74647,30.74678 z"
       id="circle4155"
       inkscape:connector-curvature="0" />
    <path
       style="color:#000000;clip-rule:nonzero;display:inline;overflow:visible;visibility:visible;opacity:1;isolation:auto;mix-blend-mode:normal;color-interpolation:sRGB;color-interpolation-filters:linearRGB;solid-color:#000000;solid-opacity:1;fill:none;fill-opacity:1;fill-rule:evenodd;stroke:#639bff;stroke-width:33.61958313;stroke-linecap:round;stroke-linejoin:round;stroke-miterlimit:4;stroke-dasharray:none;stroke-dashoffset:0;stroke-opacity:1;color-rendering:auto;image-rendering:auto;shape-rendering:auto;text-rendering:auto;enable-background:accumulate"
       d="m 261.50684,330.91692 175.98975,0 -112.1993,-290.61236"
       id="path4159"
       inkscape:connector-curvature="0"
       sodipodi:nodetypes="ccc" />
    <path
       style="opacity:1;fill:none;fill-opacity:1;stroke:#639bff;stroke-width:33.61958313;stroke-linecap:round;stroke-linejoin:round;stroke-miterlimit:4;stroke-dasharray:none;stroke-dashoffset:0;stroke-opacity:1"
       d="m 660.40718,330.91659 -191.7449,-415.724606 -60.66889,0"
       id="path4167"
       inkscape:connector-curvature="0"
       sodipodi:nodetypes="ccc" />
    <path
       style="opacity:1;fill:none;fill-opacity:1;stroke:#639bff;stroke-width:33.61958313;stroke-linecap:round;stroke-linejoin:round;stroke-miterlimit:4;stroke-dasharray:none;stroke-dashoffset:0;stroke-opacity:1"
       d="M 437.49659,330.91692 526.36794,40.30456"
       id="path4171"
       inkscape:connector-curvature="0"
       sodipodi:nodetypes="cc" />
    <path
       style="opacity:1;fill:none;fill-opacity:1;stroke:#639bff;stroke-width:33.61958313;stroke-linecap:round;stroke-linejoin:round;stroke-miterlimit:4;stroke-dasharray:none;stroke-dashoffset:0;stroke-opacity:1"
       d="m 285.54853,40.30456 79.49754,0"
       id="path4177"
       inkscape:connector-curvature="0" />
  </g>
</svg>
